<svg width="839" height="1063" viewBox="0 0 839 1063" fill="none" xmlns="http://www.w3.org/2000/svg">
<path d="M0 1054C113 1077.5 160.613 1036.39 262.5 1018.5C404.877 993.498 475 1057.5 570.5 974C666 890.5 680.5 862 721 831.5C761.5 801 828.5 713.5 837.5 662" stroke="white" stroke-opacity="0.2" stroke-width="2"/>
<path d="M0 1005.91C114.706 1029.37 186.194 976.548 290.317 989.929C402.992 1004.41 500.441 926.018 583.679 830.651C666.917 735.285 666.917 807.184 736.958 738.78C807 670.375 797.864 632.428 807 581" stroke="white" stroke-opacity="0.2" stroke-width="2"/>
<path d="M0 855.5C96 912 90.5 914 161 914C231.5 914 267.5 895.5 341.5 779.5C415.5 663.5 469 695.5 535 656C601 616.5 603.5 664 665.5 581.5C665.5 581.5 755 472 822 429.5" stroke="white" stroke-opacity="0.2" stroke-width="2"/>
<path d="M0 766C96 822.5 125.5 828 162.5 828C199.5 828 308.5 780.5 371 688C433.5 595.5 469 596.5 512 545C555 493.5 542.5 505 578 493C613.5 481 617.5 431.5 690 392.5C762.5 353.5 787 317 815 270.5" stroke="white" stroke-opacity="0.2" stroke-width="2"/>
<path d="M0 659.5C59 741 125.5 752.5 162.5 752.5C199.5 752.5 318.5 705 381 612.5C443.5 520 533.5 283.5 578.5 265.5C623.5 247.5 652 251.5 687.5 239.5C723 227.5 767.5 132 802 124" stroke="white" stroke-opacity="0.2" stroke-width="2"/>
<path d="M0 519.5C58 539 40 680 144.5 680C249 680 316.5 468 379 375.5C441.5 283 543.5 144.5 588.5 126.5C633.5 108.5 730 5.5 765.5 -6.5" stroke="white" stroke-opacity="0.2" stroke-width="2"/>
<path d="M0 411.5C75 411.5 51 533.5 118 541.5C185 549.5 261 348 360 289.5C459 231 506.5 243.5 562 167.5C617.5 91.4999 674.5 -21.5001 729 -12.5001" stroke="white" stroke-opacity="0.2" stroke-width="2"/>
<path d="M0 322.5C6.5 363 77.5 281 120 382C162.5 483 278.5 269.5 377.5 211C476.5 152.5 507.5 220 578.5 111.5C649.5 3 624.5 -2.5 677 -30.5" stroke="white" stroke-opacity="0.2" stroke-width="2"/>
</svg>
