<svg width="143" height="50" viewBox="0 0 143 50" fill="none" xmlns="http://www.w3.org/2000/svg">
<path fill-rule="evenodd" clip-rule="evenodd" d="M82.0947 9.73948H77.5579V12.0575H82.0092V14.7018H77.5579V19.1145H74.8185V7.09516H82.0947V9.73948ZM94.1991 17.552C92.9777 18.754 91.5054 19.3549 89.782 19.3549C88.0469 19.3549 86.5747 18.754 85.3649 17.552C84.155 16.3502 83.55 14.8676 83.55 13.105C83.55 11.342 84.155 9.85953 85.3649 8.65775C86.5747 7.45574 88.0469 6.85486 89.782 6.85486C91.5054 6.85486 92.9777 7.45574 94.1991 8.65775C95.4089 9.85953 96.0139 11.342 96.0139 13.105C96.0139 14.8676 95.4089 16.3502 94.1991 17.552ZM87.2822 15.6805C87.9442 16.3443 88.7776 16.6763 89.782 16.6763C90.7748 16.6763 91.6025 16.3443 92.2645 15.6805C92.9379 15.005 93.2746 14.1465 93.2746 13.105C93.2746 12.0631 92.9379 11.2047 92.2645 10.5292C91.6025 9.86541 90.7748 9.53344 89.782 9.53344C88.7776 9.53344 87.9442 9.86541 87.2822 10.5292C86.6204 11.1932 86.2894 12.0518 86.2894 13.105C86.2894 14.1579 86.6204 15.0165 87.2822 15.6805ZM104.197 19.1145L101.938 15.1654H100.637V19.1145H97.8971V7.09516H102.691C103.832 7.09516 104.802 7.49588 105.601 8.29717C106.4 9.09838 106.8 10.0714 106.8 11.2161C106.8 11.9487 106.597 12.6269 106.192 13.2508C105.787 13.8745 105.253 14.3583 104.591 14.7018L107.142 19.1145H104.197ZM100.637 9.67073V12.7614H102.691C103.067 12.7614 103.39 12.6125 103.658 12.315C103.926 12.0174 104.061 11.6511 104.061 11.2161C104.061 10.7811 103.926 10.4148 103.658 10.1171C103.39 9.81954 103.067 9.67073 102.691 9.67073H100.637ZM111.508 16.4702H116.302V19.1145H108.769V7.09516H116.216V9.73948H111.508V11.7312H115.788V14.3412H111.508V16.4702ZM122.379 19.3549C121.147 19.3549 120.125 19.0916 119.315 18.5652C118.504 18.0385 117.928 17.3116 117.586 16.3844L119.948 15.0109C120.428 16.1212 121.267 16.6763 122.465 16.6763C123.549 16.6763 124.092 16.3502 124.092 15.6976C124.092 15.3313 123.915 15.0565 123.561 14.8734C123.196 14.6559 122.545 14.4213 121.609 14.1695C121.095 14.0322 120.653 13.8776 120.282 13.7059C119.911 13.5341 119.543 13.311 119.178 13.0362C118.824 12.75 118.553 12.3951 118.365 11.9717C118.177 11.548 118.082 11.0615 118.082 10.5122C118.082 9.41318 118.476 8.5261 119.264 7.85059C120.062 7.18681 121.01 6.85486 122.106 6.85486C123.099 6.85486 123.969 7.08378 124.716 7.54152C125.464 7.99947 126.055 8.67478 126.489 9.56772L124.177 10.9242C123.96 10.4663 123.692 10.1201 123.373 9.88528C123.053 9.65062 122.631 9.53344 122.106 9.53344C121.695 9.53344 121.378 9.62207 121.155 9.7995C120.933 9.97693 120.822 10.1915 120.822 10.4434C120.822 10.7411 120.959 10.9986 121.233 11.2161C121.518 11.445 122.1 11.6853 122.979 11.9372L124.092 12.2978C124.377 12.3894 124.708 12.544 125.085 12.7614C125.496 12.9675 125.804 13.1907 126.009 13.4311C126.226 13.66 126.417 13.9662 126.583 14.3497C126.748 14.7332 126.831 15.1711 126.831 15.6633C126.831 16.8079 126.42 17.7124 125.598 18.3761C124.776 19.0288 123.704 19.3549 122.379 19.3549ZM136.162 7.09516V9.73948H133.08V19.1145H130.341V9.73948H127.259V7.09516H136.162Z" fill="white"/>
<path fill-rule="evenodd" clip-rule="evenodd" d="M79.3602 22.3791C80.5484 22.3791 81.5425 22.7824 82.3422 23.5888C83.1533 24.4066 83.5589 25.386 83.5589 26.5265C83.5589 27.667 83.1533 28.6463 82.3422 29.4644C81.5425 30.2708 80.5484 30.674 79.3602 30.674H77.5607V34.4758H74.8185V22.3791H79.3602ZM79.3602 28.0818C79.7829 28.0818 80.1314 27.932 80.4055 27.6326C80.6797 27.333 80.8168 26.9643 80.8168 26.5265C80.8168 26.0887 80.6797 25.7201 80.4055 25.4204C80.1314 25.121 79.7829 24.9712 79.3602 24.9712H77.5607V28.0818H79.3602ZM91.6996 34.4758L91.0997 32.575H86.6438L86.044 34.4758H83.0448L87.1237 22.3791H90.6199L94.6988 34.4758H91.6996ZM87.4664 29.9828H90.277L88.8718 25.5415L87.4664 29.9828ZM102.376 34.4758L100.114 30.5013H98.8119V34.4758H96.0698V22.3791H100.868C102.011 22.3791 102.982 22.7824 103.782 23.5888C104.582 24.3952 104.982 25.3745 104.982 26.5265C104.982 27.2639 104.779 27.9464 104.373 28.5743C103.968 29.2021 103.434 29.6889 102.771 30.0347L105.324 34.4758H102.376ZM98.8119 24.9712V28.0818H100.868C101.245 28.0818 101.568 27.932 101.837 27.6326C102.105 27.333 102.239 26.9643 102.239 26.5265C102.239 26.0887 102.105 25.7201 101.837 25.4204C101.568 25.121 101.245 24.9712 100.868 24.9712H98.8119ZM116.653 34.4758H113.533L109.694 28.8768V34.4758H106.952V22.3791H109.694V27.6326L113.362 22.3791H116.481L112.437 28.272L116.653 34.4758Z" fill="white"/>
<path fill-rule="evenodd" clip-rule="evenodd" d="M78.7264 49.7597L74.8185 37.7403H77.818L80.4746 46.5832L83.1312 37.7403H86.1307L82.2229 49.7597H78.7264ZM87.5018 37.7403H90.2442V49.7597H87.5018V37.7403ZM95.3861 47.1154H99.6709V49.7597H92.6437V37.7403H95.3861V47.1154ZM103.956 47.1154H108.241V49.7597H101.214V37.7403H103.956V47.1154ZM117.753 49.7597L117.153 47.871H112.697L112.097 49.7597H109.098L113.177 37.7403H116.674L120.753 49.7597H117.753ZM113.52 45.2954H116.331L114.925 40.8825L113.52 45.2954ZM133.573 43.0632V44.0934C133.573 45.8791 133.013 47.3157 131.894 48.4032C130.774 49.4679 129.362 50 127.66 50C125.798 50 124.249 49.3991 123.015 48.1971C121.793 46.9953 121.181 45.5185 121.181 43.7671C121.181 42.0157 121.787 40.5334 122.998 39.3199C124.209 38.1065 125.7 37.5 127.471 37.5C128.031 37.5 128.571 37.5657 129.091 37.6973C129.611 37.8291 130.097 38.0151 130.548 38.2554C130.999 38.4957 131.408 38.7849 131.773 39.1226C132.139 39.4602 132.453 39.835 132.716 40.2471L130.385 41.5866C130.122 41.1743 129.731 40.8366 129.211 40.5734C128.691 40.3102 128.106 40.1786 127.454 40.1786C126.437 40.1786 125.592 40.5162 124.918 41.1916C124.255 41.8555 123.924 42.7199 123.924 43.7844C123.924 44.8259 124.266 45.6787 124.952 46.3427C125.637 46.9953 126.552 47.3214 127.694 47.3214C129.271 47.3214 130.294 46.7033 130.762 45.467H127.557V43.0632H133.573ZM138.201 47.1154H143V49.7597H135.458V37.7403H142.914V40.3846H138.201V42.3763H142.486V44.9864H138.201V47.1154Z" fill="white"/>
<path fill-rule="evenodd" clip-rule="evenodd" d="M15.2927 6.8479L15.2894 5.95673L15.2868 5.92886L16.17 5.83793C18.628 5.58207 20.1612 6.19491 21.1483 7.27172L35.5834 0C44.6571 3.90102 53.7297 7.80465 62.8016 11.71L62.889 21.0542L67.7857 22.5537L67.9803 37.4351L63.0333 36.491L63.1596 49.979L45.5182 49.9974L45.5384 33.1527L42.4624 32.5657V50H40.6823V30.4087L45.5406 31.3356L45.5595 15.748L61.1108 20.5096L61.0396 12.8939L35.6384 1.96579L22.1046 8.78337C22.7158 10.1821 22.9261 11.887 23.1228 13.4836C23.2515 14.527 23.3737 15.5177 23.6094 16.2423C24.0703 17.6599 24.8182 18.818 25.5497 19.9511C26.2076 20.9699 26.8539 21.9713 27.3199 23.1216L35.9804 21.0795L36.0151 50H15.5158L15.4606 39.3148C14.9111 39.3072 14.2996 39.2654 13.6503 39.179L13.66 50H0V29.5643L2.846 28.8931C2.43823 25.5469 3.57112 23.4112 4.78346 21.1251C5.58091 19.6223 6.41689 18.0465 6.77626 15.9804C7.212 13.475 7.75959 11.0494 8.46309 8.98737C9.19197 6.85051 10.1012 5.08112 11.2452 3.97064C14.7056 0.611641 19.5123 3.04185 19.526 3.04875L20.3188 3.4473L19.526 5.04148L18.7334 4.643C18.7229 4.63795 15.0345 2.77335 12.4762 5.25701C11.5579 6.1486 10.7907 7.67743 10.1458 9.56779C9.47515 11.5338 8.94916 13.8679 8.52833 16.2883C8.12299 18.619 7.21458 20.3314 6.34805 21.9642C5.30962 23.9216 4.33775 25.7545 4.5948 28.4806L11.8666 26.7657L11.8536 11.9541L15.3105 10.2124L15.2932 6.8479H15.2927ZM17.0695 7.57725L17.0785 9.32153L19.2806 8.2123C18.7259 7.81752 18.0082 7.58272 17.0695 7.57725ZM17.0887 11.31L17.1621 25.5168L25.5471 23.5396C25.1448 22.6018 24.6074 21.7692 24.0611 20.923C23.2645 19.6892 22.4499 18.4279 21.919 16.7945C21.6268 15.896 21.4948 14.8268 21.356 13.7003C21.1834 12.3004 20.9976 10.7955 20.4284 9.62774L17.0887 11.31ZM17.1715 27.3506L17.2233 37.4015C18.9695 37.1098 20.9003 36.3092 22.5268 34.9436C24.0919 33.63 25.3696 31.791 25.9155 29.3789C26.29 27.7241 26.2957 26.3934 26.0768 25.2504L17.1715 27.3506ZM17.2326 39.2057L17.279 48.2101H34.2393L34.2095 23.3326L27.8342 24.8361C28.1012 26.1867 28.0989 27.7725 27.6467 29.7703C27.0037 32.6105 25.5036 34.7723 23.6671 36.314C21.7009 37.9647 19.3395 38.9043 17.2326 39.2057ZM15.4508 37.5299L15.4005 27.7683L13.6403 28.1832L13.6486 37.3793C14.2973 37.4762 14.9082 37.5218 15.451 37.5299H15.4508ZM15.3912 25.9344L15.3203 12.2009L13.627 13.0538L13.6387 26.3478L15.3912 25.9344ZM11.8675 28.6014L4.90805 30.2424C5.55814 32.7609 6.9957 34.4494 8.67643 35.5565C9.69276 36.2259 10.7974 36.6882 11.8749 36.9963L11.8673 28.6014H11.8675ZM3.17875 30.6502L1.77951 30.9803V48.2101H11.8849L11.8765 38.8408C10.4861 38.4934 9.03022 37.9272 7.70275 37.0528C5.67939 35.7202 3.95143 33.6866 3.17867 30.6502H3.17875ZM62.9061 22.9231L63.0158 34.6706L66.1782 35.274L66.0291 23.8794L62.9061 22.9231ZM61.3693 48.198L61.2565 36.1522L47.3104 33.4909L47.2928 48.2128L61.3693 48.198ZM61.2394 34.3314L61.1279 22.3785L47.3289 18.1534L47.3126 31.6741L61.2394 34.3314Z" fill="white"/>
</svg>
