<svg width="24" height="24" viewBox="0 0 24 24" fill="none" xmlns="http://www.w3.org/2000/svg">
<g clip-path="url(#clip0_94_347)">
<path d="M17.507 14.307L17.498 14.382C15.299 13.286 15.069 13.14 14.785 13.566C14.588 13.861 14.014 14.53 13.841 14.728C13.666 14.923 13.492 14.938 13.195 14.803C12.895 14.653 11.932 14.338 10.792 13.318C9.90401 12.523 9.30801 11.548 9.13201 11.248C8.83901 10.742 9.45201 10.67 10.01 9.61399C10.11 9.40399 10.059 9.23899 9.98501 9.08999C9.91001 8.93999 9.31301 7.46999 9.06301 6.88399C8.82301 6.29999 8.57601 6.37399 8.39101 6.37399C7.81501 6.32399 7.39401 6.33199 7.02301 6.71799C5.40902 8.49199 5.81602 10.322 7.19701 12.268C9.91101 15.82 11.357 16.474 14.001 17.382C14.715 17.609 15.366 17.577 15.881 17.503C16.455 17.412 17.648 16.782 17.897 16.077C18.152 15.372 18.152 14.787 18.077 14.652C18.003 14.517 17.807 14.442 17.507 14.307Z" fill="white"/>
<path d="M20.52 3.449C12.831 -3.98399 0.106 1.407 0.101 11.893C0.101 13.989 0.65 16.033 1.696 17.838L0 24L6.335 22.348C14.24 26.618 23.996 20.948 24 11.899C24 8.723 22.76 5.734 20.505 3.488L20.52 3.449ZM22.002 11.866C21.996 19.499 13.617 24.266 6.99 20.37L6.63 20.156L2.88 21.131L3.885 17.486L3.646 17.111C-0.478 10.546 4.26 1.966 12.072 1.966C14.726 1.966 17.217 3.001 19.093 4.876C20.968 6.735 22.002 9.226 22.002 11.866Z" fill="white"/>
</g>
<defs>
<clipPath id="clip0_94_347">
<rect width="24" height="24" fill="white"/>
</clipPath>
</defs>
</svg>
